<?xml version="1.0" encoding="UTF-8"?>
<svg width="80px" height="80px" viewBox="0 0 80 80" version="1.1" xmlns="http://www.w3.org/2000/svg" xmlns:xlink="http://www.w3.org/1999/xlink">
    <title>Rectangle</title>
    <g id="Page-1" stroke="none" stroke-width="1" fill="none" fill-rule="evenodd">
        <g id="Desktop-HD" transform="translate(-680.000000, -904.000000)">
            <rect fill="#FFFFFF" x="0" y="0" width="1440" height="2858"></rect>
            <rect id="Rectangle" fill="#D8D8D8" x="0" y="944" width="1440" height="729"></rect>
            <rect id="Rectangle" fill="#444444" x="680" y="904" width="80" height="80"></rect>
            <path d="M708.720553,937.703658 C709.642838,936.733107 711.368949,936.798354 712.308156,937.703658 C712.697377,938.078829 713.078137,938.445844 713.467358,938.821015 C716.242673,941.496147 719.009527,944.163123 721.784842,946.838254 L719.995366,945.113192 C722.559386,942.641729 725.117273,940.176177 727.682387,937.703658 C728.689285,936.733107 730.254631,936.80651 731.26999,937.703658 C732.276888,938.59265 732.209197,940.256452 731.26999,941.161755 C730.880769,941.536926 730.500009,941.903941 730.110788,942.279112 C727.335473,944.954244 724.568619,947.62122 721.793304,950.296351 C721.754105,950.334455 721.714019,950.37095 721.673115,950.40585 C720.7282,951.260482 719.099564,951.166103 718.19724,950.296351 C717.808019,949.921181 717.427259,949.554165 717.038038,949.178995 C714.262723,946.503863 711.495869,943.836887 708.720553,941.161755 C707.722117,940.191204 707.798269,938.674209 708.720553,937.703658 Z" id="Combined-Shape" fill="#D8D8D8" fill-rule="nonzero"></path>
        </g>
    </g>
</svg>